<svg xmlns="http://www.w3.org/2000/svg" viewBox="4914.66 10635.289 50.905 31.531">
  <path fill="#E5E5E5" d="M54.96-76.2q-2.04.48-3.96.9a14.282,14.282,0,0,0-3.54,1.26,12.71,12.71,0,0,0-2.94,2.1,8.216,8.216,0,0,0-2.04,3.42,7.053,7.053,0,0,1,5.22,2.7,8.538,8.538,0,0,1,1.74,5.22,8.5,8.5,0,0,1-1.98,5.46,7.17,7.17,0,0,1-5.94,2.46,8.609,8.609,0,0,1-6.06-2.4q-2.58-2.4-2.58-7.68a23.029,23.029,0,0,1,1.02-6.72,17.036,17.036,0,0,1,3.36-6.12,20.5,20.5,0,0,1,6.24-4.8,28.619,28.619,0,0,1,9.78-2.76Zm-27.72,0q-2.04.48-3.96.9a15.348,15.348,0,0,0-3.6,1.26,12.247,12.247,0,0,0-3,2.1,8.216,8.216,0,0,0-2.04,3.42,7.053,7.053,0,0,1,5.22,2.7A8.538,8.538,0,0,1,21.6-60.6a8.663,8.663,0,0,1-1.92,5.46q-1.92,2.46-6,2.46a8.4,8.4,0,0,1-6-2.4q-2.52-2.4-2.52-7.68a23.029,23.029,0,0,1,1.02-6.72A17.036,17.036,0,0,1,9.54-75.6a20.5,20.5,0,0,1,6.24-4.8,28.619,28.619,0,0,1,9.78-2.76Z" transform="translate(4910 10719)"/>
</svg>
