<svg xmlns="http://www.w3.org/2000/svg" viewBox="4010 15 138 45">
  <g transform="translate(1584 -327)">
    <rect fill="none" width="138" height="45" transform="translate(2426 342)"/>
    <circle fill="#86e0eb" cx="8.5" cy="8.5" r="8.5" transform="translate(2547 356)"/>
    <path fill="#ffffff" d="M13.668.51C20.434.51,23.9-3.978,24.82-7.684L20.434-9.01a6.7,6.7,0,0,1-6.766,4.93c-3.876,0-7.48-2.822-7.48-7.956,0-5.474,3.808-8.058,7.412-8.058,4.182,0,6.052,2.55,6.63,4.862l4.42-1.394c-.952-3.91-4.386-7.99-11.05-7.99A12.168,12.168,0,0,0,1.326-12.036C1.326-4.352,6.936.51,13.668.51ZM33.762,6.6,44.268-16.728H39.44L35.326-6.936l-4.454-9.792H25.806l7.106,14.62L28.968,6.6ZM53.754-13.056a3.648,3.648,0,0,1,3.706,2.822l4.046-1.36c-.714-2.822-3.3-5.644-7.854-5.644a8.565,8.565,0,0,0-8.67,8.874A8.655,8.655,0,0,0,53.788.51a7.767,7.767,0,0,0,7.82-5.644L57.63-6.46a3.829,3.829,0,0,1-3.842,2.822c-2.312,0-4.284-1.7-4.284-4.726S51.442-13.056,53.754-13.056ZM69.462,0V-24.616H64.94V0Zm9.35,0V-16.728H74.29V0ZM73.746-22.2a2.794,2.794,0,0,0,2.788,2.754A2.772,2.772,0,0,0,79.322-22.2a2.786,2.786,0,0,0-2.788-2.822A2.808,2.808,0,0,0,73.746-22.2ZM88.162-9.622c0-1.938,1.156-3.468,3.128-3.468,2.176,0,3.094,1.462,3.094,3.332V0h4.522V-10.54c0-3.672-1.9-6.63-6.052-6.63a5.557,5.557,0,0,0-4.828,2.516v-2.074H83.64V0h4.522ZM102.306.918c.476,3.2,3.536,6.052,8.126,6.052,6.29,0,8.772-4.182,8.772-8.772V-16.728h-4.352v1.972c-.578-1.122-2.108-2.278-4.76-2.278a7.849,7.849,0,0,0-7.786,8.16c0,4.692,3.332,8.126,7.786,8.126A5.315,5.315,0,0,0,114.75-2.89v1.224c0,3.23-1.6,4.658-4.454,4.658a3.744,3.744,0,0,1-3.91-3.162Zm8.568-5.542a3.9,3.9,0,0,1-4.012-4.25,3.949,3.949,0,0,1,4.012-4.216,3.935,3.935,0,0,1,3.944,4.216C114.818-6.29,113.186-4.624,110.874-4.624Z" transform="translate(2425 373)"/>
  </g>
</svg>
