<svg xmlns="http://www.w3.org/2000/svg" xmlns:xlink="http://www.w3.org/1999/xlink" viewBox="0 0 443 495">
  <defs>
    <style>
      .cls-1 {
        clip-path: url(#clip-ad-443x495);
      }

      .cls-2 {
        fill: #86e0eb;
      }

      .cls-3, .cls-4 {
        fill: #fff;
      }

      .cls-3 {
        stroke: rgba(0,0,0,0);
        stroke-width: 1px;
      }

      .cls-5 {
        filter: url(#Shape);
      }
    </style>
    <filter id="Shape" x="9.058" y="-49.542" width="463.952" height="554.376" filterUnits="userSpaceOnUse">
      <feOffset dx="20" dy="-20" input="SourceAlpha"/>
      <feGaussianBlur stdDeviation="10" result="blur"/>
      <feFlood flood-opacity="0.078"/>
      <feComposite operator="in" in2="blur"/>
      <feComposite in="SourceGraphic"/>
    </filter>
    <clipPath id="clip-ad-443x495">
      <rect width="443" height="495"/>
    </clipPath>
  </defs>
  <g id="ad-443x495" class="cls-1">
    <rect class="cls-4" width="443" height="495"/>
    <path id="Base" class="cls-2" d="M2,0H441a1.992,1.992,0,0,1,2,1.984V493.016A1.992,1.992,0,0,1,441,495H2a1.992,1.992,0,0,1-2-1.984V1.984A1.992,1.992,0,0,1,2,0Z"/>
    <g class="cls-5" transform="matrix(1, 0, 0, 1, 0, 0)">
      <path id="Shape-2" data-name="Shape" class="cls-2" d="M1686.545,2086c76.664-79.105,114.658-100.875,83.455-151s-150.385-53.229-180-75,72.836-157.295,30-201.141S1455,1695,1455,1695v390Z" transform="translate(-1723.23 -1275.21) rotate(-11)"/>
    </g>
    <path id="Text" class="cls-3" d="M19.108,0h5.1l-9.18-24.106H9.588L.34,0H5.3L7.31-5.508H17.1Zm-6.9-18.9,3.332,9.112H8.874Zm30.532-5.712H38.284v9.554c-.476-.884-1.836-2.074-4.726-2.074-4.726,0-8.024,3.842-8.024,8.738,0,5.066,3.4,8.806,8.16,8.806a5.244,5.244,0,0,0,4.692-2.346A11.549,11.549,0,0,0,38.556,0h4.318c-.068-.68-.136-1.9-.136-3.026ZM30.09-8.4c0-2.992,1.836-4.692,4.148-4.692s4.114,1.666,4.114,4.658c0,3.026-1.8,4.794-4.114,4.794C31.858-3.638,30.09-5.406,30.09-8.4Zm33.49-8.33H58.82L54.842-5.508l-4.148-11.22H45.73L52.564,0h4.522Zm5.712,6.46a3.619,3.619,0,0,1,3.74-3.3c2.584,0,3.672,1.632,3.74,3.3Zm7.922,4.352a3.694,3.694,0,0,1-3.808,2.55A4.074,4.074,0,0,1,69.19-7.174H81.158c0-.068.068-.748.068-1.394,0-5.372-3.094-8.67-8.262-8.67-4.284,0-8.228,3.468-8.228,8.806,0,5.644,4.046,8.942,8.636,8.942a7.534,7.534,0,0,0,7.616-5.3ZM95.166-16.8a10.3,10.3,0,0,0-1.054-.068,4.975,4.975,0,0,0-4.76,2.618v-2.482H84.966V0h4.522V-7.65c0-3.6,2.006-4.726,4.318-4.726a6.809,6.809,0,0,1,1.36.136Zm9.588-4.93h-4.08v2.346a2.41,2.41,0,0,1-2.584,2.652h-.85v4.012h3.026V-4.93c0,3.23,2.04,5.168,5.3,5.168a6.708,6.708,0,0,0,2.55-.408V-3.91a6.563,6.563,0,0,1-1.394.136c-1.292,0-1.972-.476-1.972-1.938v-7h3.366v-4.012h-3.366ZM116.654,0V-16.728h-4.522V0Zm-5.066-22.2a2.794,2.794,0,0,0,2.788,2.754,2.772,2.772,0,0,0,2.788-2.754,2.786,2.786,0,0,0-2.788-2.822A2.808,2.808,0,0,0,111.588-22.2Zm8.636,17.544c.2,1.9,1.938,5.168,6.97,5.168,4.386,0,6.494-2.788,6.494-5.508,0-2.448-1.666-4.454-4.964-5.134l-2.38-.51c-.918-.17-1.53-.68-1.53-1.5a1.923,1.923,0,0,1,2.142-1.666,2.549,2.549,0,0,1,2.754,2.244l3.774-.85c-.2-1.8-1.8-4.828-6.562-4.828-3.6,0-6.256,2.482-6.256,5.474,0,2.346,1.462,4.284,4.692,5l2.21.51c1.292.272,1.8.884,1.8,1.632,0,.884-.714,1.666-2.21,1.666a2.782,2.782,0,0,1-3.06-2.55Zm20.5-5.61a3.619,3.619,0,0,1,3.74-3.3c2.584,0,3.672,1.632,3.74,3.3Zm7.922,4.352a3.694,3.694,0,0,1-3.808,2.55,4.074,4.074,0,0,1-4.216-3.808h11.968c0-.068.068-.748.068-1.394,0-5.372-3.094-8.67-8.262-8.67-4.284,0-8.228,3.468-8.228,8.806,0,5.644,4.046,8.942,8.636,8.942a7.534,7.534,0,0,0,7.616-5.3ZM8.738,29.868V40H13.43V29.868l8.5-13.974H16.66l-5.406,9.554L5.848,15.894H.34ZM29,36.4c-2.21,0-4.25-1.632-4.25-4.76,0-3.162,2.04-4.76,4.25-4.76s4.25,1.6,4.25,4.76S31.212,36.4,29,36.4Zm0-13.634a8.568,8.568,0,0,0-8.772,8.874A8.587,8.587,0,0,0,29,40.51a8.587,8.587,0,0,0,8.772-8.874A8.568,8.568,0,0,0,29,22.762ZM52.394,40h4.318a27.514,27.514,0,0,1-.17-3.026v-13.7H52.02V33a3.018,3.018,0,0,1-3.162,3.3c-2.108,0-3.06-1.5-3.06-3.366V23.272H41.276V33.846c0,3.638,2.312,6.6,6.358,6.6A5.285,5.285,0,0,0,52.258,38.2,11.45,11.45,0,0,0,52.394,40ZM71.74,23.2a10.3,10.3,0,0,0-1.054-.068,4.975,4.975,0,0,0-4.76,2.618V23.272H61.54V40h4.522V32.35c0-3.6,2.006-4.726,4.318-4.726a6.809,6.809,0,0,1,1.36.136ZM2.754,55.894V80H12.07c4.522,0,7.446-2.822,7.446-6.732a5.7,5.7,0,0,0-4.25-5.712,5.356,5.356,0,0,0,3.5-5.168c0-3.74-2.652-6.494-7.344-6.494Zm4.624,9.962V59.838h3.3c2.278,0,3.468,1.156,3.468,2.992s-1.292,3.026-3.434,3.026Zm0,10.234V69.732h3.876c2.346,0,3.57,1.326,3.57,3.23,0,1.938-1.36,3.128-3.638,3.128ZM34,80h4.318a27.514,27.514,0,0,1-.17-3.026v-13.7H33.626V73a3.018,3.018,0,0,1-3.162,3.3c-2.108,0-3.06-1.5-3.06-3.366V63.272H22.882V73.846c0,3.638,2.312,6.6,6.358,6.6A5.285,5.285,0,0,0,33.864,78.2,11.45,11.45,0,0,0,34,80Zm7.718-4.658c.2,1.9,1.938,5.168,6.97,5.168,4.386,0,6.494-2.788,6.494-5.508,0-2.448-1.666-4.454-4.964-5.134l-2.38-.51c-.918-.17-1.53-.68-1.53-1.5A1.923,1.923,0,0,1,48.45,66.2,2.549,2.549,0,0,1,51.2,68.44l3.774-.85c-.2-1.8-1.8-4.828-6.562-4.828-3.6,0-6.256,2.482-6.256,5.474,0,2.346,1.462,4.284,4.692,5l2.21.51c1.292.272,1.8.884,1.8,1.632,0,.884-.714,1.666-2.21,1.666a2.782,2.782,0,0,1-3.06-2.55ZM63.512,80V63.272H58.99V80ZM58.446,57.8a2.788,2.788,0,1,0,2.788-2.822A2.794,2.794,0,0,0,58.446,57.8Zm14.586,12.58c0-1.938,1.156-3.468,3.128-3.468,2.176,0,3.094,1.462,3.094,3.332V80h4.522V69.46c0-3.672-1.9-6.63-6.052-6.63A5.557,5.557,0,0,0,72.9,65.346V63.272H68.51V80h4.522Zm18.8-.646a3.619,3.619,0,0,1,3.74-3.3c2.584,0,3.672,1.632,3.74,3.3Zm7.922,4.352a3.694,3.694,0,0,1-3.808,2.55,4.074,4.074,0,0,1-4.216-3.808H103.7c0-.068.068-.748.068-1.394,0-5.372-3.094-8.67-8.262-8.67-4.284,0-8.228,3.468-8.228,8.806,0,5.644,4.046,8.942,8.636,8.942a7.534,7.534,0,0,0,7.616-5.3Zm6.324,1.258c.2,1.9,1.938,5.168,6.97,5.168,4.386,0,6.494-2.788,6.494-5.508,0-2.448-1.666-4.454-4.964-5.134l-2.38-.51c-.918-.17-1.53-.68-1.53-1.5a1.923,1.923,0,0,1,2.142-1.666,2.549,2.549,0,0,1,2.754,2.244l3.774-.85c-.2-1.8-1.8-4.828-6.562-4.828-3.6,0-6.256,2.482-6.256,5.474,0,2.346,1.462,4.284,4.692,5l2.21.51c1.292.272,1.8.884,1.8,1.632,0,.884-.714,1.666-2.21,1.666a2.782,2.782,0,0,1-3.06-2.55Zm15.844,0c.2,1.9,1.938,5.168,6.97,5.168,4.386,0,6.494-2.788,6.494-5.508,0-2.448-1.666-4.454-4.964-5.134l-2.38-.51c-.918-.17-1.53-.68-1.53-1.5a1.923,1.923,0,0,1,2.142-1.666,2.549,2.549,0,0,1,2.754,2.244l3.774-.85c-.2-1.8-1.8-4.828-6.562-4.828-3.6,0-6.256,2.482-6.256,5.474,0,2.346,1.462,4.284,4.692,5l2.21.51c1.292.272,1.8.884,1.8,1.632,0,.884-.714,1.666-2.21,1.666a2.782,2.782,0,0,1-3.06-2.55ZM22.678,120V95.894H17.952v9.69H7.446v-9.69H2.754V120H7.446V110H17.952v10Zm8.534-10.268a3.619,3.619,0,0,1,3.74-3.3c2.584,0,3.672,1.632,3.74,3.3Zm7.922,4.352a3.694,3.694,0,0,1-3.808,2.55,4.074,4.074,0,0,1-4.216-3.808H43.078c0-.068.068-.748.068-1.394,0-5.372-3.094-8.67-8.262-8.67-4.284,0-8.228,3.468-8.228,8.806,0,5.644,4.046,8.942,8.636,8.942a7.534,7.534,0,0,0,7.616-5.3ZM57.086,103.2a10.3,10.3,0,0,0-1.054-.068,4.975,4.975,0,0,0-4.76,2.618v-2.482H46.886V120h4.522v-7.65c0-3.6,2.006-4.726,4.318-4.726a6.808,6.808,0,0,1,1.36.136Zm6.494,6.528a3.619,3.619,0,0,1,3.74-3.3c2.584,0,3.672,1.632,3.74,3.3Zm7.922,4.352a3.694,3.694,0,0,1-3.808,2.55,4.074,4.074,0,0,1-4.216-3.808H75.446c0-.068.068-.748.068-1.394,0-5.372-3.094-8.67-8.262-8.67-4.284,0-8.228,3.468-8.228,8.806,0,5.644,4.046,8.942,8.636,8.942a7.534,7.534,0,0,0,7.616-5.3Z" transform="translate(33 341.026)"/>
  </g>
</svg>
