<svg id="ad" xmlns="http://www.w3.org/2000/svg" viewBox="0 0 443 210">
  <defs>
    <style>
      .cls-1 {
        fill: #9575cd;
      }

      .cls-2 {
        fill: #fff;
        stroke: rgba(0,0,0,0);
        stroke-width: 1px;
      }
    </style>
  </defs>
  <rect id="bg" class="cls-1" width="443" height="210" rx="2"/>
  <path id="copy" class="cls-2" d="M-119.214-4.824c0,2.772,2.3,5.328,6.084,5.328a5.919,5.919,0,0,0,5.22-2.628A12,12,0,0,0-107.73,0h4.392a19.835,19.835,0,0,1-.216-2.808V-11.52c0-3.564-2.088-6.732-7.7-6.732-4.752,0-7.308,3.06-7.6,5.832l4.248.9a3.144,3.144,0,0,1,3.384-2.88c2.016,0,2.988,1.044,2.988,2.3,0,.612-.324,1.116-1.332,1.26l-4.356.648C-116.874-9.756-119.214-7.992-119.214-4.824Zm7.092,1.764a2.078,2.078,0,0,1-2.3-2.052,2.236,2.236,0,0,1,2.2-2.232l4-.612v.792C-108.234-4.032-110.106-3.06-112.122-3.06Zm30.2-23h-4.716v10.116c-.5-.936-1.944-2.2-5-2.2-5,0-8.5,4.068-8.5,9.252,0,5.364,3.6,9.324,8.64,9.324a5.552,5.552,0,0,0,4.968-2.484A12.229,12.229,0,0,0-86.346,0h4.572c-.072-.72-.144-2.016-.144-3.2ZM-95.31-8.892c0-3.168,1.944-4.968,4.392-4.968s4.356,1.764,4.356,4.932c0,3.2-1.908,5.076-4.356,5.076C-93.438-3.852-95.31-5.724-95.31-8.892Zm35.28-8.82h-5.04l-4.212,11.88-4.392-11.88H-78.93L-71.694,0h4.788Zm5.868,6.84a3.832,3.832,0,0,1,3.96-3.492c2.736,0,3.888,1.728,3.96,3.492Zm8.388,4.608a3.911,3.911,0,0,1-4.032,2.7A4.314,4.314,0,0,1-54.27-7.6H-41.6c0-.072.072-.792.072-1.476,0-5.688-3.276-9.18-8.748-9.18-4.536,0-8.712,3.672-8.712,9.324C-58.986-2.952-54.7.54-49.842.54c4.356,0,7.164-2.556,8.064-5.616Zm18.828-11.52a10.9,10.9,0,0,0-1.116-.072c-1.512,0-3.96.432-5.04,2.772v-2.628h-4.644V0h4.788V-8.1c0-3.816,2.124-5,4.572-5a7.209,7.209,0,0,1,1.44.144ZM-16.974-23h-4.32v2.484a2.552,2.552,0,0,1-2.736,2.808h-.9v4.248h3.2V-5.22c0,3.42,2.16,5.472,5.616,5.472a7.1,7.1,0,0,0,2.7-.432V-4.14A6.949,6.949,0,0,1-14.886-4c-1.368,0-2.088-.5-2.088-2.052v-7.416h3.564v-4.248h-3.564ZM-4.554,0V-17.712H-9.342V0ZM-9.918-23.508a2.958,2.958,0,0,0,2.952,2.916,2.935,2.935,0,0,0,2.952-2.916A2.95,2.95,0,0,0-6.966-26.5,2.973,2.973,0,0,0-9.918-23.508ZM-.954-4.932C-.738-2.916,1.1.54,6.426.54,11.07.54,13.3-2.412,13.3-5.292c0-2.592-1.764-4.716-5.256-5.436l-2.52-.54c-.972-.18-1.62-.72-1.62-1.584a2.036,2.036,0,0,1,2.268-1.764A2.7,2.7,0,0,1,9.09-12.24l4-.9c-.216-1.908-1.908-5.112-6.948-5.112-3.816,0-6.624,2.628-6.624,5.8,0,2.484,1.548,4.536,4.968,5.292l2.34.54C8.19-6.336,8.73-5.688,8.73-4.9c0,.936-.756,1.764-2.34,1.764a2.945,2.945,0,0,1-3.24-2.7Zm21.528-5.94a3.832,3.832,0,0,1,3.96-3.492c2.736,0,3.888,1.728,3.96,3.492Zm8.388,4.608a3.911,3.911,0,0,1-4.032,2.7A4.314,4.314,0,0,1,20.466-7.6H33.138c0-.072.072-.792.072-1.476,0-5.688-3.276-9.18-8.748-9.18-4.536,0-8.712,3.672-8.712,9.324C15.75-2.952,20.034.54,24.894.54c4.356,0,7.164-2.556,8.064-5.616ZM41.778,0V-10.368A3.241,3.241,0,0,1,45.09-13.86c2.16,0,3.132,1.44,3.132,3.348V0h4.752V-10.368A3.253,3.253,0,0,1,56.25-13.86c2.2,0,3.132,1.44,3.132,3.348V0h4.644V-11.484c0-4.752-3.132-6.732-6.408-6.732A6.154,6.154,0,0,0,52-15.264a5.48,5.48,0,0,0-5.256-2.952,6.087,6.087,0,0,0-5.184,2.664v-2.16H36.99V0Zm30.6-10.872a3.832,3.832,0,0,1,3.96-3.492c2.736,0,3.888,1.728,3.96,3.492Zm8.388,4.608a3.911,3.911,0,0,1-4.032,2.7A4.314,4.314,0,0,1,72.27-7.6H84.942c0-.072.072-.792.072-1.476,0-5.688-3.276-9.18-8.748-9.18-4.536,0-8.712,3.672-8.712,9.324C67.554-2.952,71.838.54,76.7.54c4.356,0,7.164-2.556,8.064-5.616Zm12.816-3.924c0-2.052,1.224-3.672,3.312-3.672,2.3,0,3.276,1.548,3.276,3.528V0h4.788V-11.16c0-3.888-2.016-7.02-6.408-7.02a5.884,5.884,0,0,0-5.112,2.664v-2.2H88.794V0h4.788ZM115.722-23H111.4v2.484a2.552,2.552,0,0,1-2.736,2.808h-.9v4.248h3.2V-5.22c0,3.42,2.16,5.472,5.616,5.472a7.1,7.1,0,0,0,2.7-.432V-4.14A6.949,6.949,0,0,1,117.81-4c-1.368,0-2.088-.5-2.088-2.052v-7.416h3.564v-4.248h-3.564Z" transform="translate(222 118)"/>
</svg>
