<svg xmlns="http://www.w3.org/2000/svg" xmlns:xlink="http://www.w3.org/1999/xlink" viewBox="0 0 915 210">
  <defs>
    <style>
      .cls-1 {
        clip-path: url(#clip-.ad-915x210);
      }

      .cls-2 {
        fill: #86e0eb;
      }

      .cls-3 {
        fill: #9575cd;
      }

      .cls-4 {
        fill: #71a2d7;
      }

      .cls-5, .cls-6 {
        fill: #fff;
      }

      .cls-5 {
        stroke: rgba(0,0,0,0);
        stroke-width: 1px;
      }

      .cls-7 {
        filter: url(#Path_2);
      }
    </style>
    <filter id="Path_2" x="651.158" y="-32" width="224.669" height="272" filterUnits="userSpaceOnUse">
      <feOffset dx="20" input="SourceAlpha"/>
      <feGaussianBlur stdDeviation="10" result="blur"/>
      <feFlood flood-opacity="0.078"/>
      <feComposite operator="in" in2="blur"/>
      <feComposite in="SourceGraphic"/>
    </filter>
    <clipPath id="clip-.ad-915x210">
      <rect width="915" height="210"/>
    </clipPath>
  </defs>
  <g id=".ad-915x210" class="cls-1">
    <rect class="cls-6" width="915" height="210"/>
    <g id="Ad" transform="translate(-504 -1877.996)">
      <path id="Base" class="cls-2" d="M2,0H913a2,2,0,0,1,2,2V208a2,2,0,0,1-2,2H2a2,2,0,0,1-2-2V2A2,2,0,0,1,2,0Z" transform="translate(504 1877.996)"/>
      <path id="Base-2" data-name="Base" class="cls-3" d="M0,0H172a2,2,0,0,1,2,2V208a2,2,0,0,1-2,2H9.577Z" transform="translate(1245 1877.996)"/>
      <path id="Path_5" data-name="Path 5" class="cls-3" d="M27.789,14.4A2.479,2.479,0,1,0,25.31,11.92,2.477,2.477,0,0,0,27.789,14.4ZM5.479,49.1a2.479,2.479,0,1,0,2.479,2.479A2.477,2.477,0,0,0,5.479,49.1Zm47.1-42.141A2.479,2.479,0,1,0,50.1,4.483,2.477,2.477,0,0,0,52.578,6.962Zm7.437,49.578H69.93v7.437a2.479,2.479,0,1,0,4.958,0V56.539h2.479a2.479,2.479,0,0,0,0-4.958H74.887V49.1a2.479,2.479,0,1,0-4.958,0v2.479H63.775l5.954-13.9h0a2.434,2.434,0,0,0,.2-.977,2.479,2.479,0,0,0-4.757-.977l0,.007a.009.009,0,0,1,0,.007L57.736,53.084a2.478,2.478,0,0,0,2.278,3.456Zm42.141-4.958c0-17.479-9.3-32.493-22.972-41.318a2.443,2.443,0,0,0-1.817-.823,2.474,2.474,0,0,0-.915,4.774A44.408,44.408,0,0,1,52.578,96.2c-.555,0-1.1-.037-1.648-.062v-.02l5.907-5.848a2.355,2.355,0,0,0,0-3.349,2.41,2.41,0,0,0-3.384,0L43.307,96.97a2.351,2.351,0,0,0,0,3.349l10.146,10.047a2.41,2.41,0,0,0,3.384,0,2.355,2.355,0,0,0,0-3.349l-5.982-5.922c.573.025,1.143.064,1.723.064A49.577,49.577,0,0,0,102.155,51.582Zm-89.24,22.31a2.479,2.479,0,1,0,2.479,2.479A2.477,2.477,0,0,0,12.916,73.891ZM50.1,63.976A2.477,2.477,0,0,0,47.62,61.5H38.039l9.008-10.805S50.1,47.5,50.1,44.145a9.916,9.916,0,1,0-19.831,0h4.958a4.96,4.96,0,0,1,4.958-4.958,5.044,5.044,0,0,1,4.958,4.958c.077,1.666-1.906,3.369-1.906,3.369L30.84,62.387a1.892,1.892,0,0,0-.573,1.589,2.477,2.477,0,0,0,2.479,2.479H47.62A2.477,2.477,0,0,0,50.1,63.976ZM27.789,88.765a2.479,2.479,0,1,0,2.479,2.479A2.477,2.477,0,0,0,27.789,88.765ZM12.916,24.314a2.479,2.479,0,1,0,2.479,2.479A2.477,2.477,0,0,0,12.916,24.314Z" transform="matrix(0.951, -0.309, 0.309, 0.951, 516.811, 1946.194)"/>
      <path id="Path_3" data-name="Path 3" class="cls-4" d="M1245,1878c-83.2,1.1-67.7,0-67.7,0s-9.509,213.058,103.264,211.992S1328.2,1876.9,1245,1878Z" transform="translate(-29.158 -2)"/>
      <g class="cls-7" transform="matrix(1, 0, 0, 1, 504, 1878)">
        <path id="Path_2-2" data-name="Path 2" class="cls-3" d="M1245,1878c-83.2,1.1-67.7,0-67.7,0s-9.509,213.058,103.264,211.992S1328.2,1876.9,1245,1878Z" transform="translate(-515 -1880)"/>
      </g>
      <path id="Path_1" data-name="Path 1" class="cls-5" d="M18.19,0V-4.488H7.446V-24.106H2.754V0Zm6.6-10.268a3.619,3.619,0,0,1,3.74-3.3c2.584,0,3.672,1.632,3.74,3.3Zm7.922,4.352A3.694,3.694,0,0,1,28.9-3.366a4.074,4.074,0,0,1-4.216-3.808H36.652c0-.068.068-.748.068-1.394,0-5.372-3.094-8.67-8.262-8.67-4.284,0-8.228,3.468-8.228,8.806C20.23-2.788,24.276.51,28.866.51a7.534,7.534,0,0,0,7.616-5.3Zm13.158-15.81h-4.08v2.346A2.41,2.41,0,0,1,39.2-16.728h-.85v4.012h3.026V-4.93c0,3.23,2.04,5.168,5.3,5.168a6.708,6.708,0,0,0,2.55-.408V-3.91a6.563,6.563,0,0,1-1.394.136c-1.292,0-1.972-.476-1.972-1.938v-7h3.366v-4.012H45.866ZM52.02-4.658c.2,1.9,1.938,5.168,6.97,5.168C63.376.51,65.484-2.278,65.484-5c0-2.448-1.666-4.454-4.964-5.134l-2.38-.51c-.918-.17-1.53-.68-1.53-1.5A1.923,1.923,0,0,1,58.752-13.8a2.549,2.549,0,0,1,2.754,2.244l3.774-.85c-.2-1.8-1.8-4.828-6.562-4.828-3.6,0-6.256,2.482-6.256,5.474,0,2.346,1.462,4.284,4.692,5l2.21.51c1.292.272,1.8.884,1.8,1.632,0,.884-.714,1.666-2.21,1.666a2.782,2.782,0,0,1-3.06-2.55ZM83.1-21.726h-4.08v2.346a2.41,2.41,0,0,1-2.584,2.652h-.85v4.012h3.026V-4.93c0,3.23,2.04,5.168,5.3,5.168a6.708,6.708,0,0,0,2.55-.408V-3.91a6.563,6.563,0,0,1-1.394.136c-1.292,0-1.972-.476-1.972-1.938v-7h3.366v-4.012H83.1ZM94.01-9.826a3.131,3.131,0,0,1,3.128-3.264c2.176,0,3.094,1.462,3.094,3.332V0h4.522V-10.54c0-3.672-1.972-6.63-6.222-6.63a5.977,5.977,0,0,0-4.522,1.836v-9.282H89.488V0H94.01Zm18.632-.442a3.619,3.619,0,0,1,3.74-3.3c2.584,0,3.672,1.632,3.74,3.3Zm7.922,4.352a3.694,3.694,0,0,1-3.808,2.55,4.074,4.074,0,0,1-4.216-3.808h11.968c0-.068.068-.748.068-1.394,0-5.372-3.094-8.67-8.262-8.67-4.284,0-8.228,3.468-8.228,8.806,0,5.644,4.046,8.942,8.636,8.942a7.534,7.534,0,0,0,7.616-5.3Zm38.93-1.53-5.372-16.66H149.26L143.922-7.514,139.5-24.106h-4.964L141.236,0h4.9l5.508-17.17L157.148,0h4.828l6.664-24.106h-4.794ZM177.684-3.6c-2.21,0-4.25-1.632-4.25-4.76,0-3.162,2.04-4.76,4.25-4.76s4.25,1.6,4.25,4.76S179.894-3.6,177.684-3.6Zm0-13.634a8.568,8.568,0,0,0-8.772,8.874A8.587,8.587,0,0,0,177.684.51a8.587,8.587,0,0,0,8.772-8.874A8.568,8.568,0,0,0,177.684-17.238Zm22.542.442a10.3,10.3,0,0,0-1.054-.068,4.975,4.975,0,0,0-4.76,2.618v-2.482h-4.386V0h4.522V-7.65c0-3.6,2.006-4.726,4.318-4.726a6.809,6.809,0,0,1,1.36.136ZM207.944,0V-24.616h-4.522V0Zm20.774-24.616h-4.454v9.554c-.476-.884-1.836-2.074-4.726-2.074-4.726,0-8.024,3.842-8.024,8.738,0,5.066,3.4,8.806,8.16,8.806a5.244,5.244,0,0,0,4.692-2.346A11.55,11.55,0,0,0,224.536,0h4.318c-.068-.68-.136-1.9-.136-3.026ZM216.07-8.4c0-2.992,1.836-4.692,4.148-4.692s4.114,1.666,4.114,4.658c0,3.026-1.8,4.794-4.114,4.794C217.838-3.638,216.07-5.406,216.07-8.4ZM18.972,21.64c-.544-2.72-2.788-6.256-8.636-6.256-4.556,0-8.4,3.264-8.4,7.548,0,3.638,2.482,6.12,6.324,6.9l3.366.68c1.87.374,2.924,1.462,2.924,2.856,0,1.7-1.394,2.958-3.91,2.958-3.4,0-5.066-2.142-5.27-4.522L1.02,32.962c.374,3.434,3.2,7.548,9.588,7.548,5.61,0,8.7-3.74,8.7-7.446,0-3.4-2.346-6.256-6.732-7.106l-3.366-.646c-1.768-.34-2.618-1.394-2.618-2.72,0-1.6,1.5-3.06,3.774-3.06a4.116,4.116,0,0,1,4.386,3.4Zm7.14,8.092a3.619,3.619,0,0,1,3.74-3.3c2.584,0,3.672,1.632,3.74,3.3Zm7.922,4.352a3.694,3.694,0,0,1-3.808,2.55,4.074,4.074,0,0,1-4.216-3.808H37.978c0-.068.068-.748.068-1.394,0-5.372-3.094-8.67-8.262-8.67-4.284,0-8.228,3.468-8.228,8.806,0,5.644,4.046,8.942,8.636,8.942a7.534,7.534,0,0,0,7.616-5.3Zm10.88-4.352a3.619,3.619,0,0,1,3.74-3.3c2.584,0,3.672,1.632,3.74,3.3Zm7.922,4.352a3.694,3.694,0,0,1-3.808,2.55,4.074,4.074,0,0,1-4.216-3.808H56.78c0-.068.068-.748.068-1.394,0-5.372-3.094-8.67-8.262-8.67-4.284,0-8.228,3.468-8.228,8.806,0,5.644,4.046,8.942,8.636,8.942a7.534,7.534,0,0,0,7.616-5.3Zm22.3-4.216V40h4.692V29.868l8.5-13.974h-5.27l-5.406,9.554L72.25,15.894H66.742ZM95.234,36.4c-2.21,0-4.25-1.632-4.25-4.76,0-3.162,2.04-4.76,4.25-4.76s4.25,1.6,4.25,4.76S97.444,36.4,95.234,36.4Zm0-13.634a8.568,8.568,0,0,0-8.772,8.874,8.773,8.773,0,1,0,17.544,0A8.568,8.568,0,0,0,95.234,22.762ZM118.456,40h4.318a27.514,27.514,0,0,1-.17-3.026v-13.7h-4.522V33a3.018,3.018,0,0,1-3.162,3.3c-2.108,0-3.06-1.5-3.06-3.366V23.272h-4.522V33.846c0,3.638,2.312,6.6,6.358,6.6A5.285,5.285,0,0,0,118.32,38.2,11.45,11.45,0,0,0,118.456,40Zm19.176-16.8a10.3,10.3,0,0,0-1.054-.068,4.975,4.975,0,0,0-4.76,2.618V23.272h-4.386V40h4.522V32.35c0-3.6,2.006-4.726,4.318-4.726a6.809,6.809,0,0,1,1.36.136ZM171.292,40V27.454H159.256v4.08h7.616c-.272,1.7-2.006,4.692-6.46,4.692-4.046,0-7.616-2.822-7.616-8.262,0-5.712,3.944-8.194,7.582-8.194a6.438,6.438,0,0,1,6.528,4.624l4.488-1.6c-1.19-3.706-4.692-7.412-11.016-7.412a12.121,12.121,0,0,0-12.342,12.58c0,7.786,5.542,12.546,12.036,12.546,3.638,0,6.018-1.632,7.106-3.264L167.484,40Zm11.9-3.6c-2.21,0-4.25-1.632-4.25-4.76,0-3.162,2.04-4.76,4.25-4.76s4.25,1.6,4.25,4.76S185.4,36.4,183.192,36.4Zm0-13.634a8.568,8.568,0,0,0-8.772,8.874,8.773,8.773,0,1,0,17.544,0A8.568,8.568,0,0,0,183.192,22.762ZM203.048,36.4c-2.21,0-4.25-1.632-4.25-4.76,0-3.162,2.04-4.76,4.25-4.76s4.25,1.6,4.25,4.76S205.258,36.4,203.048,36.4Zm0-13.634a8.568,8.568,0,0,0-8.772,8.874,8.773,8.773,0,1,0,17.544,0A8.568,8.568,0,0,0,203.048,22.762Zm28.288-7.378h-4.454v9.554c-.476-.884-1.836-2.074-4.726-2.074-4.726,0-8.024,3.842-8.024,8.738,0,5.066,3.4,8.806,8.16,8.806a5.244,5.244,0,0,0,4.692-2.346,11.55,11.55,0,0,0,.17,1.938h4.318c-.068-.68-.136-1.9-.136-3.026ZM218.688,31.6c0-2.992,1.836-4.692,4.148-4.692s4.114,1.666,4.114,4.658c0,3.026-1.8,4.794-4.114,4.794C220.456,36.362,218.688,34.594,218.688,31.6Zm16.116,3.74c.2,1.9,1.938,5.168,6.97,5.168,4.386,0,6.494-2.788,6.494-5.508,0-2.448-1.666-4.454-4.964-5.134l-2.38-.51c-.918-.17-1.53-.68-1.53-1.5a1.923,1.923,0,0,1,2.142-1.666,2.549,2.549,0,0,1,2.754,2.244l3.774-.85c-.2-1.8-1.8-4.828-6.562-4.828-3.6,0-6.256,2.482-6.256,5.474,0,2.346,1.462,4.284,4.692,5l2.21.51c1.292.272,1.8.884,1.8,1.632,0,.884-.714,1.666-2.21,1.666a2.782,2.782,0,0,1-3.06-2.55Z" transform="translate(672 1976)"/>
    </g>
  </g>
</svg>
